<svg width="800" height="600" xmlns="http://www.w3.org/2000/svg">
  <defs>
    <linearGradient id="bg" x1="0%" y1="0%" x2="100%" y2="100%">
      <stop offset="0%" style="stop-color:#1a1a1a;stop-opacity:1" />
      <stop offset="100%" style="stop-color:#2a2a2a;stop-opacity:1" />
    </linearGradient>
    <linearGradient id="accent" x1="0%" y1="0%" x2="100%" y2="0%">
      <stop offset="0%" style="stop-color:#d4af37;stop-opacity:1" />
      <stop offset="100%" style="stop-color:#f4d03f;stop-opacity:1" />
    </linearGradient>
  </defs>
  
  <!-- Background -->
  <rect width="800" height="600" fill="url(#bg)"/>
  
  <!-- Spanish flag elements -->
  <rect x="50" y="50" width="700" height="8" fill="#c41e3a"/>
  <rect x="50" y="70" width="700" height="16" fill="#f1bf00"/>
  <rect x="50" y="98" width="700" height="8" fill="#c41e3a"/>
  
  <!-- Document icon -->
  <rect x="150" y="180" width="300" height="380" rx="15" fill="#333" stroke="url(#accent)" stroke-width="3"/>
  <rect x="170" y="220" width="260" height="8" fill="url(#accent)"/>
  <rect x="170" y="250" width="200" height="6" fill="#666"/>
  <rect x="170" y="270" width="220" height="6" fill="#666"/>
  <rect x="170" y="290" width="180" height="6" fill="#666"/>
  
  <!-- Stamp/seal -->
  <circle cx="350" cy="400" r="60" fill="none" stroke="url(#accent)" stroke-width="4"/>
  <circle cx="350" cy="400" r="35" fill="none" stroke="url(#accent)" stroke-width="2"/>
  <text x="350" y="395" text-anchor="middle" fill="url(#accent)" font-family="Arial, sans-serif" font-size="12" font-weight="bold">ESPAÑA</text>
  <text x="350" y="410" text-anchor="middle" fill="url(#accent)" font-family="Arial, sans-serif" font-size="10">RESIDENCIA</text>
  
  <!-- Building silhouette -->
  <rect x="500" y="300" width="40" height="120" fill="#444"/>
  <rect x="550" y="280" width="35" height="140" fill="#444"/>
  <rect x="595" y="320" width="30" height="100" fill="#444"/>
  <rect x="635" y="290" width="38" height="130" fill="#444"/>
  
  <!-- Windows -->
  <rect x="505" y="310" width="6" height="8" fill="url(#accent)" opacity="0.7"/>
  <rect x="515" y="310" width="6" height="8" fill="url(#accent)" opacity="0.7"/>
  <rect x="525" y="310" width="6" height="8" fill="url(#accent)" opacity="0.7"/>
  <rect x="505" y="330" width="6" height="8" fill="url(#accent)" opacity="0.7"/>
  <rect x="515" y="330" width="6" height="8" fill="url(#accent)" opacity="0.7"/>
  
  <!-- Title -->
  <text x="400" y="150" text-anchor="middle" fill="url(#accent)" font-family="Arial, sans-serif" font-size="32" font-weight="bold">RESIDENCIA</text>
  <text x="400" y="180" text-anchor="middle" fill="#ccc" font-family="Arial, sans-serif" font-size="18">Residence Permit Services</text>
</svg>
